<?xml version="1.0" encoding="UTF-8"?>
<svg id="Layer_2" xmlns="http://www.w3.org/2000/svg" viewBox="0 0 994.27 489.32">
  <defs>
    <style>
      .cls-1 {
        fill: #fff;
      }
    </style>
  </defs>
  <g id="Layer_1-2" data-name="Layer_1">
    <g>
      <polygon class="cls-1" points="439.85 193.91 168.3 239.35 168.3 393.93 439.85 393.93 439.85 193.91"/>
      <polygon class="cls-1" points="378.08 183.95 378.08 84.15 148.74 0 0 24.89 0 393.93 148.74 393.93 148.74 65.77 168.24 72.93 168.3 219.06 378.08 183.95"/>
      <polygon class="cls-1" points="535.02 317.29 485.3 317.29 485.3 286.64 535.95 286.64 535.95 263.08 459.13 263.08 459.13 393.93 485.3 393.93 485.3 340.47 535.02 340.47 535.02 317.29"/>
      <path class="cls-1" d="M624.83,301.4c-7.79-4.61-16.73-6.92-26.82-6.92s-18.88,2.31-26.73,6.92c-7.85,4.61-13.99,10.78-18.41,18.5-4.42,7.73-6.64,16.26-6.64,25.61s2.21,17.85,6.64,25.51c4.42,7.66,10.56,13.8,18.41,18.41,7.85,4.61,16.76,6.92,26.73,6.92s19.03-2.31,26.82-6.92c7.79-4.61,13.89-10.75,18.32-18.41,4.42-7.66,6.64-16.17,6.64-25.51s-2.21-17.88-6.64-25.61c-4.42-7.73-10.53-13.89-18.32-18.5ZM621.28,359.35c-2.18,4.24-5.27,7.63-9.25,10.19-3.99,2.56-8.66,3.83-14.02,3.83s-10.03-1.28-14.02-3.83c-3.99-2.55-7.07-5.95-9.25-10.19-2.18-4.23-3.27-8.85-3.27-13.83s1.09-9.78,3.27-14.02c2.18-4.23,5.26-7.63,9.25-10.19,3.99-2.55,8.66-3.83,14.02-3.83s10.03,1.28,14.02,3.83c3.99,2.56,7.07,5.95,9.25,10.19,2.18,4.24,3.27,8.91,3.27,14.02s-1.09,9.6-3.27,13.83Z"/>
      <path class="cls-1" d="M693.71,325.14c4.98-4.61,11.09-6.92,18.32-6.92h3.55v-23.74c-8.48-.5-15.2,1.09-20.19,4.77-4.99,3.68-8.29,9-9.91,15.98v-18.5h-24.49v97.2h25.23v-49.72c0-8.1,2.49-14.45,7.48-19.07Z"/>
      <path class="cls-1" d="M880.06,393.93v-59.44c0-8.22-1.62-15.33-4.86-21.31-3.24-5.98-7.66-10.59-13.27-13.83-5.61-3.24-11.9-4.86-18.88-4.86-8.6,0-15.42,1.59-20.47,4.77-5.05,3.18-9.19,7.7-12.43,13.55-3.24-5.86-7.6-10.37-13.08-13.55-5.48-3.18-11.65-4.77-18.5-4.77-14.71,0-24.61,5.48-29.72,16.45v-14.21h-24.86v97.2h25.23v-53.27c0-8.47,2.02-14.61,6.07-18.41,4.05-3.8,8.75-5.7,14.11-5.7,6.23,0,11.28,1.9,15.14,5.7,3.86,3.8,5.79,9.94,5.79,18.41v53.27h25.23v-53.27c0-9.35,1.84-15.7,5.51-19.07,3.67-3.36,8.44-5.05,14.3-5.05s10.4,1.9,14.02,5.7c3.61,3.8,5.42,9.94,5.42,18.41v53.27h25.23Z"/>
      <path class="cls-1" d="M969.22,296.73v15.33c-2.62-5.23-6.29-9.44-11.03-12.62-4.74-3.18-11.34-4.77-19.81-4.77-6.73,0-12.99,1.34-18.79,4.02-5.79,2.68-10.87,6.36-15.23,11.03-4.36,4.67-7.79,10.09-10.28,16.26-2.49,6.17-3.74,12.74-3.74,19.72,0,9.35,2.15,17.85,6.45,25.51,4.3,7.66,10.09,13.77,17.38,18.32,7.29,4.55,15.36,6.82,24.21,6.82s15.48-1.68,20.28-5.05c4.8-3.36,8.5-7.79,11.12-13.27v15.89h24.49v-97.2h-25.05ZM966.42,359.53c-2.24,4.24-5.39,7.63-9.44,10.19-4.05,2.56-8.88,3.83-14.49,3.83s-10.06-1.31-14.11-3.92c-4.05-2.62-7.2-6.08-9.44-10.37-2.24-4.3-3.36-8.88-3.36-13.74,0-5.11,1.12-9.78,3.36-14.02,2.24-4.23,5.39-7.63,9.44-10.19,4.05-2.55,8.75-3.83,14.11-3.83s10.44,1.31,14.49,3.93c4.05,2.62,7.2,6.04,9.44,10.28,2.24,4.24,3.36,8.91,3.36,14.02s-1.12,9.6-3.36,13.83Z"/>
      <path class="cls-1" d="M20.38,438.34L1.87,488.75h3.96l6.41-17.43h21.24l6.55,17.43h4.25l-19.3-50.4h-4.61ZM13.61,467.72c4.54-12.82,7.78-21.75,9-25.56h.07c1.01,3.38,3.89,10.58,9.5,25.56H13.61Z"/>
      <path class="cls-1" d="M129.67,451.59c0-7.92-5.26-13.25-15.19-13.25h-18.07v50.4h3.96v-23.55h12.38c9.65,0,12.1,3.46,12.1,11.74v1.3c0,4.32-.22,8.35.72,10.51h3.96c-.94-1.94-.65-6.7-.65-10.22v-1.94c0-8.57-3.46-11.95-8.64-13.18,5.62-1.22,9.43-5.4,9.43-11.81ZM112.54,461.6h-12.17v-19.66h13.25c7.85,0,11.88,3.53,11.88,9.72,0,6.62-4.1,9.94-12.96,9.94Z"/>
      <path class="cls-1" d="M203.76,441.22c8.71,0,12.96,4.32,15.27,10.87h3.89c-1.66-8.42-8.06-14.47-18.94-14.47-14.69,0-22.18,12.38-22.18,25.99s7.63,25.71,22.11,25.71c10.66,0,16.56-6.05,18.94-14.04h-3.89c-2.52,6.19-6.7,10.44-14.91,10.44-12.89,0-18.07-11.38-18.07-22.18s5.26-22.32,17.79-22.32Z"/>
      <polygon class="cls-1" points="311.04 460.3 280.8 460.3 280.8 438.34 276.91 438.34 276.91 488.75 280.8 488.75 280.8 463.9 311.04 463.9 311.04 488.75 314.93 488.75 314.93 438.34 311.04 438.34 311.04 460.3"/>
      <rect class="cls-1" x="372.96" y="438.34" width="3.89" height="50.4"/>
      <polygon class="cls-1" points="428.04 441.94 444.96 441.94 444.96 488.75 448.92 488.75 448.92 441.94 465.91 441.94 465.91 438.34 428.04 438.34 428.04 441.94"/>
      <polygon class="cls-1" points="520.48 463.98 546.19 463.98 546.19 460.38 520.48 460.38 520.48 441.94 547.49 441.94 547.49 438.34 516.6 438.34 516.6 488.75 548.06 488.75 548.64 485.15 520.48 485.15 520.48 463.98"/>
      <path class="cls-1" d="M620.42,441.22c8.71,0,12.96,4.32,15.27,10.87h3.89c-1.66-8.42-8.06-14.47-18.94-14.47-14.69,0-22.18,12.38-22.18,25.99s7.63,25.71,22.11,25.71c10.66,0,16.56-6.05,18.94-14.04h-3.89c-2.52,6.19-6.7,10.44-14.91,10.44-12.89,0-18.07-11.38-18.07-22.18s5.26-22.32,17.79-22.32Z"/>
      <polygon class="cls-1" points="687.31 441.94 704.23 441.94 704.23 488.75 708.19 488.75 708.19 441.94 725.18 441.94 725.18 438.34 687.31 438.34 687.31 441.94"/>
      <path class="cls-1" d="M809.85,468.87c0,13.32-6.26,16.85-14.69,16.85-7.13,0-14.69-3.46-14.69-16.85v-30.53h-4.03v30.96c0,14.62,8.64,20.02,18.58,20.02,10.44,0,18.79-4.9,18.79-20.67v-30.31h-3.96v30.53Z"/>
      <path class="cls-1" d="M904.39,451.59c0-7.92-5.26-13.25-15.19-13.25h-18.07v50.4h3.96v-23.55h12.38c9.65,0,12.1,3.46,12.1,11.74v1.3c0,4.32-.22,8.35.72,10.51h3.96c-.94-1.94-.65-6.7-.65-10.22v-1.94c0-8.57-3.46-11.95-8.64-13.18,5.62-1.22,9.43-5.4,9.43-11.81ZM887.25,461.6h-12.17v-19.66h13.25c7.85,0,11.88,3.53,11.88,9.72,0,6.62-4.1,9.94-12.96,9.94Z"/>
      <polygon class="cls-1" points="963.78 463.98 989.49 463.98 989.49 460.38 963.78 460.38 963.78 441.94 990.79 441.94 990.79 438.34 959.9 438.34 959.9 488.75 991.36 488.75 991.94 485.15 963.78 485.15 963.78 463.98"/>
    </g>
  </g>
</svg>